PathFileType	4	(X/Y/Z)	c:/Users/goper/Files/vsCode/490R/osim_files/C15/C15_Slow_01.trc
DataRate	CameraRate	NumFrames	NumMarkers	Units                	OrigDataRate	OrigDataStartFrame	OrigNumFrames
250.00	250.00	6	36	mm	250.0	2703	3089
                Frame#	Time	LPSIS			LASIS			LTH1			LTH2			LTH3			LTH4			LLFE			LMFE			LSH1			LSH2			LSH3			LSH4			LLMAL			LMMAL			LCAL			LMTP5			LTOE			LMTP1			RPSIS			RASIS			RTH1			RTH2			RTH3			RTH4			RLFE			RMFE			RSH1			RSH2			RSH3			RSH4			RLMAL			RMMAL			RCAL			RMTP1			RTOE			RMTP5		
		X1	Y1	Z1	X2	Y2	Z2	X3	Y3	Z3	X4	Y4	Z4	X5	Y5	Z5	X6	Y6	Z6	X7	Y7	Z7	X8	Y8	Z8	X9	Y9	Z9	X10	Y10	Z10	X11	Y11	Z11	X12	Y12	Z12	X13	Y13	Z13	X14	Y14	Z14	X15	Y15	Z15	X16	Y16	Z16	X17	Y17	Z17	X18	Y18	Z18	X19	Y19	Z19	X20	Y20	Z20	X21	Y21	Z21	X22	Y22	Z22	X23	Y23	Z23	X24	Y24	Z24	X25	Y25	Z25	X26	Y26	Z26	X27	Y27	Z27	X28	Y28	Z28	X29	Y29	Z29	X30	Y30	Z30	X31	Y31	Z31	X32	Y32	Z32	X33	Y33	Z33	X34	Y34	Z34	X35	Y35	Z35	X36	Y36	Z36

2703	10.80800	0.00000	0.00000	0.00000	-3902.42041	1006.52899	319.87387	-3997.98535	605.44061	387.52222	0.00000	0.00000	0.00000	-3981.13379	647.11096	395.60593	0.00000	0.00000	0.00000	-3998.70020	499.29095	241.21704	-3992.30273	517.01959	363.77759	0.00000	0.00000	0.00000	0.00000	0.00000	0.00000	0.00000	0.00000	0.00000	-3523.07788	8.55423	379.88913	0.00000	0.00000	0.00000	0.00000	0.00000	0.00000	0.00000	0.00000	0.00000	0.00000	0.00000	0.00000	0.00000	0.00000	0.00000	-3934.85791	619.14532	399.46161	0.00000	0.00000	0.00000	-3861.54248	1007.59387	76.36302	-3768.91797	641.94000	44.38141	0.00000	0.00000	0.00000	-3826.64258	633.96875	57.37909	-3815.77197	588.07050	64.38830	-3759.30176	500.20859	86.24793	0.00000	0.00000	0.00000	-3657.17603	411.09854	78.40057	0.00000	0.00000	0.00000	-3714.38965	388.71512	75.66158	-3697.49146	350.99094	73.26425	-3616.08374	107.94494	155.40878	0.00000	0.00000	0.00000	0.00000	0.00000	0.00000	0.00000	0.00000	0.00000	-754.99792	735.00415	2361.24512	0.00000	0.00000	0.00000
2704	10.81200	0.00000	0.00000	0.00000	-3906.45020	1005.99164	319.76505	-4000.80396	604.38794	388.13461	0.00000	0.00000	0.00000	-3983.93018	646.01727	396.17151	0.00000	0.00000	0.00000	-4001.92871	498.66937	240.79562	0.00000	0.00000	0.00000	0.00000	0.00000	0.00000	-4022.17139	411.79163	378.69873	0.00000	0.00000	0.00000	0.00000	0.00000	0.00000	0.00000	0.00000	0.00000	0.00000	0.00000	0.00000	0.00000	0.00000	0.00000	0.00000	0.00000	0.00000	0.00000	0.00000	0.00000	-3937.90063	618.28693	399.82907	0.00000	0.00000	0.00000	-3865.08325	1007.22040	76.37962	-3771.09326	641.77081	44.31676	0.00000	0.00000	0.00000	-3828.90210	633.57031	57.00179	-3817.81689	587.72028	64.07614	-3761.36401	500.01257	86.02941	0.00000	0.00000	0.00000	-3658.64746	411.34015	78.49513	0.00000	0.00000	0.00000	-3715.72021	388.64954	75.61624	-3698.26172	350.99728	73.97939	-3616.33911	108.27380	155.44231	0.00000	0.00000	0.00000	0.00000	0.00000	0.00000	0.00000	0.00000	0.00000	-754.93250	735.02026	2361.22192	0.00000	0.00000	0.00000
2705	10.81600	0.00000	0.00000	0.00000	-3910.56812	1005.50232	319.67642	-4003.68115	603.34015	388.61862	0.00000	0.00000	0.00000	-3986.81250	644.94012	396.70703	0.00000	0.00000	0.00000	-4005.26172	498.12836	240.32886	0.00000	0.00000	0.00000	0.00000	0.00000	0.00000	0.00000	0.00000	0.00000	0.00000	0.00000	0.00000	-4026.04150	411.10352	377.89154	0.00000	0.00000	0.00000	0.00000	0.00000	0.00000	0.00000	0.00000	0.00000	0.00000	0.00000	0.00000	0.00000	0.00000	0.00000	-3941.09912	617.48608	400.11902	0.00000	0.00000	0.00000	-3868.59180	1006.78668	76.35394	-3773.39331	641.55951	44.21979	0.00000	0.00000	0.00000	-3831.14307	633.07349	56.67143	-3819.96753	587.30359	63.75863	-3763.46460	499.77649	85.77927	0.00000	0.00000	0.00000	-3660.27563	411.56311	78.58970	-3649.77661	367.37387	77.62434	-3717.16357	388.57672	75.57742	-3699.86377	350.93201	73.27885	-3616.61499	108.63541	155.44153	0.00000	0.00000	0.00000	0.00000	0.00000	0.00000	0.00000	0.00000	0.00000	-754.92761	735.03076	2361.22998	0.00000	0.00000	0.00000
2706	10.82000	0.00000	0.00000	0.00000	-3914.64014	1004.97888	319.59250	-4006.58496	602.29865	388.98761	0.00000	0.00000	0.00000	-3989.71191	643.87701	397.16205	0.00000	0.00000	0.00000	-4008.58203	497.63483	239.80058	0.00000	0.00000	0.00000	0.00000	0.00000	0.00000	-4029.93188	410.52704	376.99734	0.00000	0.00000	0.00000	0.00000	0.00000	0.00000	0.00000	0.00000	0.00000	0.00000	0.00000	0.00000	0.00000	0.00000	0.00000	0.00000	0.00000	0.00000	0.00000	0.00000	0.00000	-3944.29468	616.66211	400.29636	0.00000	0.00000	0.00000	-3872.23193	1006.44897	76.36080	-3775.73950	641.37903	44.16566	0.00000	0.00000	0.00000	-3833.52832	632.61255	56.30294	-3822.17456	586.85754	63.44093	-3765.73828	499.62845	85.52442	0.00000	0.00000	0.00000	-3661.98584	411.78259	78.66527	0.00000	0.00000	0.00000	-3718.73120	388.48792	75.56539	-3701.27930	351.04074	73.25394	-3616.83789	108.95604	155.42023	0.00000	0.00000	0.00000	0.00000	0.00000	0.00000	0.00000	0.00000	0.00000	-754.96179	734.99988	2361.23071	0.00000	0.00000	0.00000
2707	10.82400	0.00000	0.00000	0.00000	-3918.77368	1004.47540	319.52533	-4009.51904	601.26648	389.21332	0.00000	0.00000	0.00000	-3992.66821	642.86823	397.50629	0.00000	0.00000	0.00000	-4011.94995	497.25461	239.26315	0.00000	0.00000	0.00000	0.00000	0.00000	0.00000	0.00000	0.00000	0.00000	0.00000	0.00000	0.00000	-4033.74902	409.95239	376.09738	0.00000	0.00000	0.00000	0.00000	0.00000	0.00000	0.00000	0.00000	0.00000	0.00000	0.00000	0.00000	0.00000	0.00000	0.00000	-3947.51489	615.84784	400.31226	0.00000	0.00000	0.00000	-3875.88965	1006.10352	76.36829	-3778.18848	641.13849	44.12335	0.00000	0.00000	0.00000	-3836.04761	632.20306	56.01468	-3824.53320	586.47046	63.12966	-3768.14160	499.42032	85.26325	0.00000	0.00000	0.00000	-3663.74634	411.97104	78.74556	0.00000	0.00000	0.00000	-3720.38574	388.37003	75.57214	-3702.58203	350.92847	73.27047	-3617.14795	109.36630	155.40384	0.00000	0.00000	0.00000	0.00000	0.00000	0.00000	0.00000	0.00000	0.00000	-754.99127	734.96283	2361.23779	0.00000	0.00000	0.00000
2708	10.82800	0.00000	0.00000	0.00000	-3922.88086	1003.97107	319.43381	-4012.44775	600.27722	389.30627	0.00000	0.00000	0.00000	-3995.66357	641.89105	397.76456	0.00000	0.00000	0.00000	-4015.35278	496.92728	238.73042	0.00000	0.00000	0.00000	0.00000	0.00000	0.00000	-4037.60327	409.36438	375.17728	0.00000	0.00000	0.00000	0.00000	0.00000	0.00000	0.00000	0.00000	0.00000	0.00000	0.00000	0.00000	0.00000	0.00000	0.00000	0.00000	0.00000	0.00000	0.00000	0.00000	0.00000	-3950.84033	615.16040	400.27435	0.00000	0.00000	0.00000	-3879.45288	1005.67322	76.33846	-3780.71167	640.91052	44.15352	0.00000	0.00000	0.00000	-3838.52881	631.70068	55.73225	-3826.89526	586.01367	62.87161	-3770.70483	499.27753	84.95463	0.00000	0.00000	0.00000	-3665.67358	412.17758	78.78908	0.00000	0.00000	0.00000	-3722.07642	388.24176	75.58671	-3704.00684	350.81213	73.32982	-3617.49512	109.80848	155.36763	0.00000	0.00000	0.00000	0.00000	0.00000	0.00000	0.00000	0.00000	0.00000	-755.03076	734.94696	2361.24634	0.00000	0.00000	0.00000
